<?xml version="1.0" standalone="no"?>
<!DOCTYPE svg PUBLIC "-//W3C//DTD SVG 20010904//EN"
 "http://www.w3.org/TR/2001/REC-SVG-20010904/DTD/svg10.dtd">
<svg version="1.0" xmlns="http://www.w3.org/2000/svg"
 width="1653.000000pt" height="1653.000000pt" viewBox="0 0 1653.000000 1653.000000"
 preserveAspectRatio="xMidYMid meet">
<metadata>
Created by potrace 1.14, written by Peter Selinger 2001-2017
</metadata>
<g transform="translate(0.000000,1653.000000) scale(0.100000,-0.100000)"
fill="#000000" stroke="none">
<path d="M15404 16476 c-73 -39 -208 -94 -429 -177 -44 -17 -93 -36 -110 -43
-16 -8 -61 -26 -100 -41 -38 -15 -88 -35 -110 -45 -22 -9 -55 -23 -74 -31 -18
-8 -79 -35 -135 -60 l-101 -45 -11 -46 c-30 -118 -433 -867 -717 -1333 -7 -11
-24 -39 -39 -62 -16 -23 -28 -44 -28 -46 0 -19 -702 -1106 -763 -1182 -6 -8
-254 -361 -357 -508 -111 -160 -579 -791 -701 -947 -11 -14 -30 -38 -42 -54
-148 -197 -555 -704 -786 -981 -69 -82 -132 -158 -141 -168 -8 -10 -23 -28
-33 -40 -10 -12 -37 -44 -60 -71 -63 -75 -183 -213 -243 -281 -29 -33 -62 -71
-74 -85 -34 -39 -130 -148 -189 -215 -30 -33 -73 -81 -95 -106 -207 -231 -263
-290 -535 -564 -365 -366 -392 -390 -497 -443 l-61 -31 2 427 c3 391 6 504 20
722 21 312 25 360 40 540 3 41 8 95 10 120 7 90 17 196 20 223 2 15 7 62 10
105 4 42 8 88 10 102 2 14 6 50 10 80 3 30 8 71 10 90 2 19 7 62 10 95 4 33 8
71 10 85 2 14 6 50 10 80 4 30 8 66 10 80 2 14 6 50 10 80 3 30 8 66 10 80 3
14 7 45 10 70 3 25 7 56 10 70 3 14 8 45 11 70 3 25 7 56 9 69 2 13 7 45 11
70 7 50 52 330 60 371 2 14 11 67 20 119 8 52 17 97 18 100 2 3 7 29 10 56 4
28 11 66 16 85 5 19 11 51 14 70 25 160 59 285 111 405 171 393 565 1429 655
1720 138 444 250 761 292 819 19 28 31 58 33 87 2 24 14 71 28 104 25 61 44
145 32 145 -13 0 -537 -284 -645 -349 -122 -74 -204 -127 -294 -189 -61 -41
-115 -75 -120 -76 -17 -3 -52 -25 -41 -26 6 0 15 3 21 8 5 4 0 -1 -11 -10 -11
-10 -25 -21 -30 -25 -60 -45 -107 -89 -124 -116 -20 -32 -49 -137 -58 -205 -2
-18 -61 -193 -132 -390 -234 -652 -278 -809 -397 -1412 -3 -14 -14 -65 -24
-115 -11 -49 -22 -106 -25 -125 -3 -19 -10 -53 -15 -75 -5 -22 -12 -56 -15
-75 -3 -19 -12 -66 -20 -105 -8 -38 -19 -98 -25 -132 -6 -35 -13 -75 -16 -90
-3 -16 -16 -86 -29 -158 -35 -186 -34 -184 -57 -234 -11 -25 -31 -70 -44 -99
-13 -29 -24 -54 -24 -57 0 -2 -16 -38 -35 -79 -19 -42 -35 -78 -35 -81 0 -2
-15 -37 -34 -77 -33 -72 -66 -143 -111 -243 -26 -57 -78 -168 -155 -330 -29
-60 -121 -247 -204 -415 -140 -279 -182 -361 -283 -550 -19 -36 -61 -115 -93
-175 -31 -61 -75 -144 -97 -185 -49 -92 -164 -307 -272 -510 -21 -41 -51 -95
-64 -120 -14 -25 -38 -67 -53 -95 -14 -27 -56 -104 -92 -170 -35 -66 -81 -149
-100 -185 -29 -54 -136 -248 -317 -575 -15 -27 -62 -110 -103 -184 -92 -162
-101 -177 -131 -233 -13 -23 -95 -168 -183 -321 -87 -153 -168 -295 -179 -315
-11 -20 -24 -44 -30 -52 -8 -14 -414 -717 -461 -800 -131 -229 -786 -1327
-937 -1570 -33 -52 -81 -131 -107 -175 -26 -44 -61 -100 -78 -125 -17 -25 -35
-53 -41 -63 -30 -53 -337 -535 -479 -752 -166 -254 -1030 -1546 -1053 -1575
-13 -16 -97 -133 -123 -170 -15 -21 -41 -58 -126 -177 -101 -140 -570 -808
-683 -973 -69 -99 -130 -188 -137 -198 -8 -9 -55 -73 -105 -142 -132 -180
-267 -340 -417 -496 -17 -19 -32 -36 -32 -38 0 -3 42 14 93 36 50 22 169 71
262 110 94 38 184 76 200 83 36 16 32 15 357 150 l258 108 88 131 c48 72 146
230 216 351 71 121 139 236 151 255 48 74 263 434 381 640 69 118 128 222 133
230 6 8 42 71 82 140 137 237 456 760 604 990 65 102 102 162 212 340 66 107
158 258 205 335 114 188 238 391 338 555 46 74 91 149 100 165 14 24 97 160
179 295 157 256 324 531 479 790 107 179 205 341 217 360 12 19 62 103 110
185 49 83 96 162 106 177 11 15 19 29 19 32 0 2 34 62 76 132 90 152 364 625
407 704 17 30 41 72 54 92 13 21 23 40 23 43 0 2 19 37 43 77 23 40 48 84 55
98 6 14 16 32 22 40 5 8 43 76 83 150 233 426 552 1001 579 1045 10 17 21 37
24 45 4 8 35 65 69 125 34 61 111 198 170 305 60 107 117 211 128 230 11 19
33 60 50 90 16 30 33 60 37 65 4 6 34 60 66 120 32 61 71 133 85 160 15 28 45
84 67 125 22 41 54 102 72 135 18 33 62 116 98 185 36 69 82 156 104 193 21
38 38 72 38 75 0 4 10 18 21 32 11 14 18 20 15 14 -3 -6 -10 -42 -16 -80 -6
-38 -13 -80 -15 -94 -3 -14 -16 -100 -29 -190 -14 -91 -27 -178 -30 -195 -3
-16 -8 -50 -11 -75 -3 -25 -13 -85 -20 -135 -8 -49 -17 -112 -21 -140 -3 -27
-7 -52 -9 -55 -2 -3 -6 -30 -10 -60 -3 -30 -15 -111 -26 -180 -27 -167 -27
-168 -34 -225 -7 -54 -7 -54 -29 -195 -9 -52 -18 -113 -21 -135 -3 -22 -10
-65 -15 -95 -5 -30 -12 -75 -15 -100 -3 -25 -8 -56 -10 -70 -2 -14 -7 -56 -10
-95 -4 -38 -9 -83 -11 -100 -2 -16 -4 -86 -5 -155 -1 -114 1 -129 23 -167 13
-23 35 -51 49 -61 61 -49 202 -69 286 -42 85 28 628 336 983 558 95 60 441
285 465 304 125 95 379 341 555 537 47 51 99 108 115 125 17 18 59 66 95 107
35 41 67 76 70 79 3 3 39 43 80 90 41 47 86 99 101 115 34 39 101 116 164 190
28 32 55 63 60 69 6 6 46 54 90 106 44 52 90 106 101 120 126 148 215 254 294
350 52 63 103 124 112 135 60 73 272 334 373 460 66 83 122 152 125 155 3 3
19 23 36 45 17 22 135 173 261 336 229 294 618 808 829 1094 147 201 286 391
304 418 53 79 152 217 159 221 4 3 -5 -32 -22 -77 -16 -45 -44 -125 -62 -177
-44 -123 -130 -367 -195 -550 -56 -156 -200 -569 -204 -585 -2 -5 -6 -17 -9
-25 -24 -61 -465 -1407 -473 -1445 -1 -5 -29 -93 -62 -195 -33 -102 -90 -279
-127 -395 -37 -115 -89 -280 -117 -365 -27 -85 -62 -195 -78 -245 -34 -105
-127 -429 -134 -465 -2 -14 -11 -47 -20 -75 -12 -41 -168 -647 -182 -707 -2
-10 -6 -26 -8 -35 -9 -35 -38 -158 -41 -173 -2 -8 -17 -71 -34 -140 -16 -69
-33 -140 -36 -159 -3 -19 -8 -37 -10 -41 -2 -4 -6 -20 -9 -36 -3 -16 -21 -108
-41 -204 -20 -96 -38 -188 -41 -204 -3 -17 -18 -96 -34 -176 -16 -80 -32 -162
-35 -181 -3 -19 -20 -101 -36 -184 -17 -82 -32 -161 -34 -175 -2 -14 -15 -85
-30 -159 -15 -74 -29 -144 -31 -155 -2 -12 -6 -32 -9 -46 -3 -14 -7 -43 -11
-65 -3 -22 -7 -47 -9 -55 -2 -8 -7 -28 -10 -45 -2 -16 -7 -39 -9 -50 -2 -11
-7 -40 -11 -65 -4 -25 -9 -54 -11 -65 -29 -150 -39 -208 -74 -440 -27 -175
-33 -218 -44 -315 -2 -19 -9 -75 -15 -125 -7 -49 -14 -110 -17 -135 -3 -25 -7
-58 -9 -75 -2 -16 -7 -61 -10 -100 -4 -38 -8 -81 -10 -95 -5 -35 -13 -115 -20
-185 -3 -33 -7 -76 -10 -95 -4 -31 -7 -63 -20 -215 -2 -22 -6 -96 -10 -165 -4
-69 -8 -147 -10 -175 -2 -27 -7 -99 -10 -160 -3 -60 -8 -141 -10 -180 -3 -38
-7 -119 -10 -180 -3 -60 -8 -150 -10 -200 -3 -49 -7 -133 -10 -185 -8 -185
-15 -326 -20 -425 -3 -55 -8 -156 -10 -225 -3 -69 -7 -168 -10 -220 -24 -447
-24 -600 2 -695 12 -44 34 -138 48 -210 34 -160 29 -139 44 -210 12 -54 71
-290 132 -525 12 -47 25 -88 29 -93 3 -4 49 16 101 44 52 29 132 72 179 97 47
25 103 56 125 69 22 12 56 31 75 41 35 18 150 81 270 146 36 20 124 68 197
107 128 71 131 73 121 98 -31 83 -137 539 -162 701 -3 19 -12 78 -20 130 -8
52 -17 124 -21 160 -3 36 -7 76 -9 90 -3 14 -7 57 -11 95 -3 39 -12 115 -20
170 -8 55 -16 129 -20 165 -5 61 -8 92 -20 235 -26 323 -39 671 -39 1095 0
323 9 689 18 765 2 17 7 84 11 150 4 66 8 136 10 155 2 19 6 78 10 130 4 52 8
113 10 135 2 22 7 72 10 110 7 76 10 114 25 250 5 50 12 113 15 141 3 28 7 59
9 70 2 10 7 48 10 84 4 36 8 75 10 85 2 11 7 45 10 75 4 30 8 66 11 80 2 14 9
62 15 107 20 153 37 270 50 343 5 30 12 80 15 110 4 30 8 57 10 60 2 3 6 26
10 50 6 45 35 216 39 235 2 6 6 33 10 60 10 66 19 112 37 200 5 28 12 66 15
85 4 27 66 346 89 455 29 144 90 425 111 514 19 77 24 98 30 131 2 14 11 52
19 85 48 206 87 368 101 418 8 32 17 66 19 75 11 52 37 152 70 262 20 69 56
193 80 275 73 252 95 325 181 615 19 63 48 158 63 210 16 52 41 136 56 185 14
50 34 115 45 145 10 30 26 82 35 115 10 33 28 92 40 130 13 39 49 151 80 250
147 465 366 1123 489 1470 26 72 58 164 72 205 38 111 114 320 130 357 8 17
14 34 14 38 0 7 106 298 121 330 5 11 32 79 60 150 28 72 57 144 64 160 8 17
46 111 86 210 105 263 347 837 432 1025 11 25 21 47 22 50 6 20 93 215 128
290 19 41 63 143 97 225 35 83 73 173 85 200 118 261 250 635 223 635 -5 0 -6
5 -3 10 9 14 9 14 -81 -34z"/>
</g>
</svg>
