<?xml version="1.0" standalone="no"?>
<!DOCTYPE svg PUBLIC "-//W3C//DTD SVG 20010904//EN"
 "http://www.w3.org/TR/2001/REC-SVG-20010904/DTD/svg10.dtd">
<svg version="1.0" xmlns="http://www.w3.org/2000/svg"
 width="2001.000000pt" height="2001.000000pt" viewBox="0 0 2001.000000 2001.000000"
 preserveAspectRatio="xMidYMid meet">
<metadata>
Created by potrace 1.14, written by Peter Selinger 2001-2017
</metadata>
<g transform="translate(0.000000,2001.000000) scale(0.100000,-0.100000)"
fill="#000000" stroke="none">
<path d="M8369 18735 c-2 -2 -62 -6 -134 -10 -71 -3 -146 -8 -165 -10 -19 -2
-69 -7 -110 -10 -126 -10 -338 -34 -440 -50 -14 -2 -45 -7 -70 -10 -25 -3 -58
-8 -75 -11 -16 -3 -43 -7 -60 -10 -34 -5 -235 -41 -278 -49 -27 -5 -251 -54
-272 -59 -5 -2 -21 -6 -35 -9 -14 -4 -72 -18 -130 -32 -222 -54 -642 -178
-692 -206 -10 -5 -23 -9 -29 -9 -11 0 -330 -118 -394 -145 -16 -7 -102 -43
-190 -80 -294 -123 -726 -343 -1020 -518 -66 -40 -124 -74 -130 -77 -40 -20
-492 -323 -539 -361 -6 -5 -72 -55 -146 -111 -227 -170 -403 -317 -625 -519
-102 -92 -488 -481 -572 -574 -106 -118 -116 -130 -217 -250 -198 -235 -397
-500 -563 -750 -51 -77 -97 -144 -101 -150 -19 -26 -122 -198 -122 -205 0 -5
-4 -10 -8 -12 -7 -3 -80 -128 -194 -333 -325 -583 -624 -1353 -798 -2055 -45
-179 -121 -538 -135 -635 -3 -23 -7 -50 -9 -62 -4 -20 -8 -45 -26 -158 -5 -33
-12 -87 -15 -120 -3 -33 -8 -67 -10 -75 -2 -8 -7 -44 -10 -80 -3 -36 -8 -81
-10 -100 -11 -99 -19 -198 -32 -415 -10 -154 -10 -762 0 -925 10 -182 16 -258
23 -325 3 -33 8 -80 10 -105 13 -126 26 -238 39 -320 2 -14 7 -45 10 -70 3
-25 10 -70 15 -100 5 -30 12 -71 15 -90 12 -75 67 -357 75 -385 5 -16 11 -43
14 -60 5 -36 53 -230 91 -370 15 -55 28 -105 29 -112 1 -7 5 -16 9 -19 4 -4 7
-14 7 -22 0 -17 67 -233 117 -377 339 -980 816 -1850 1447 -2640 68 -86 119
-146 286 -339 188 -217 622 -644 860 -845 89 -75 231 -191 265 -216 22 -16 42
-32 45 -36 3 -3 77 -59 164 -124 297 -221 668 -458 991 -634 83 -45 158 -87
168 -92 96 -53 400 -197 572 -271 393 -170 764 -298 1225 -426 146 -40 447
-108 630 -142 58 -10 114 -21 125 -23 11 -3 45 -8 75 -12 30 -4 64 -9 75 -11
10 -2 37 -6 60 -9 22 -4 51 -8 65 -10 71 -11 181 -25 225 -29 28 -3 70 -8 95
-10 117 -13 190 -19 400 -32 154 -11 824 -11 980 -1 169 11 341 25 400 32 19
3 60 7 90 10 54 6 66 8 145 19 22 3 58 8 80 11 60 7 112 14 200 30 44 8 96 17
115 20 117 18 425 85 610 132 118 30 222 56 230 58 18 4 101 29 326 101 147
47 477 165 539 193 60 27 94 41 98 41 2 0 22 8 43 17 22 9 41 17 44 18 16 5
119 51 295 133 157 73 444 220 550 282 17 10 50 29 75 42 53 30 240 141 290
173 305 195 627 422 810 572 36 30 70 57 75 61 15 12 209 174 221 186 6 6 42
38 79 71 245 216 587 563 785 795 11 14 31 36 44 50 120 132 435 547 588 774
l83 123 135 69 c221 112 553 309 730 432 120 84 255 180 295 211 22 17 45 34
50 38 120 92 388 318 490 412 191 180 448 448 580 606 27 33 52 62 55 65 3 3
33 39 65 80 33 41 62 77 65 80 3 3 32 41 65 85 33 44 64 84 68 90 55 71 317
459 317 470 0 4 13 25 28 48 25 36 63 101 159 272 31 54 214 423 253 510 18
39 38 84 46 100 69 154 202 522 287 800 46 150 131 501 163 675 7 41 16 86 18
100 3 14 8 43 11 65 3 22 8 49 10 60 1 11 6 45 10 75 3 30 10 80 15 110 5 30
12 82 15 115 3 33 8 83 11 110 22 204 28 355 28 685 0 336 -7 499 -29 700 -3
25 -8 65 -10 90 -8 73 -17 142 -20 159 -1 9 -6 41 -10 71 -22 180 -106 594
-160 790 -81 296 -196 643 -269 815 -7 17 -21 50 -31 75 -20 48 -49 117 -93
215 -39 89 -227 461 -267 530 -19 33 -38 67 -42 75 -65 140 -434 682 -627 920
-203 251 -525 594 -721 771 -183 164 -247 219 -380 325 -144 115 -401 303
-463 339 -9 6 -19 12 -22 15 -19 20 -361 229 -504 307 -675 371 -1387 626
-2146 768 -14 3 -36 7 -50 9 -14 3 -43 8 -65 11 -22 3 -65 10 -95 15 -93 16
-226 32 -365 46 -38 3 -78 8 -87 9 -140 27 -1014 27 -1212 0 -17 -2 -68 -7
-112 -10 -45 -3 -93 -8 -105 -10 -13 -2 -62 -9 -109 -15 -47 -5 -96 -12 -110
-14 -14 -3 -43 -7 -65 -11 -60 -8 -283 -49 -335 -60 -14 -4 -36 -8 -49 -11
-13 -3 -54 -12 -90 -20 -129 -29 -146 -33 -166 -38 -11 -2 -32 -9 -46 -14 -62
-24 -109 -23 -212 3 -125 33 -441 106 -515 120 -33 6 -70 13 -142 25 -30 6
-64 12 -75 14 -11 2 -56 9 -100 16 -44 6 -91 13 -105 16 -32 5 -230 31 -295
38 -27 3 -68 8 -90 11 -42 5 -110 11 -240 20 -44 3 -107 8 -140 11 -68 6 -861
15 -866 9z"/>
</g>
</svg>
